<svg width="800" height="600" xmlns="http://www.w3.org/2000/svg">
  <title>Layer 1</title>
  <path d="m237.28535,172.95227c0,0 0.00503,-1.14178 2,-1c7.05328,0.50126 19.181,2.48664 34,8c17.23087,6.41069 33.73836,12.74768 48,22c28.69548,18.61636 31.30621,24.74208 38,33c9.44548,11.65259 17.41425,23.80043 24,38c6.40865,13.81772 10.26198,29.95309 13,46c2.21227,12.96558 5.83281,23.76468 1,38c-1.15909,3.41415 -4.22021,6.79489 -7,10c-3.27602,3.77728 -6.9183,7.11215 -11,10c-2.94336,2.08246 -5.95328,4.07193 -9,6c-4.92722,3.1181 -7.87856,4.49347 -11,5c-4.93544,0.8009 -10.15688,-0.57971 -16,-3c-4.13171,-1.71143 -8.45049,-3.4505 -11,-6c-2.54951,-2.5495 -4.49346,-5.87857 -5,-9c-0.48055,-2.96127 -0.5405,-6.0535 -1,-8c-0.51374,-2.17624 -1,-5 -1,-6c0,-2 0,-4 0,-6c0,-1 0,-2 0,-2c0,-2 0,-2 0,-3c0,0 -1,0 -1,0c-2,0 -5,1 -10,3c-5,2 -8.55819,4.51929 -12,7c-1.814,1.30746 -2.7226,2.01932 -3,4c-1.00976,7.20975 -2.63345,11.02249 -3,14c-0.50378,4.09222 -2,8 -3,11c-1,3 -1.11587,6.96384 -2,10c-1.15277,3.95868 -1.49346,6.87857 -2,10c-0.48055,2.96127 0,7 0,12c0,4 -0.48873,8.02997 0,12c0.50378,4.09222 2.60703,9.17572 5,14c2.59106,5.22363 6.45049,10.4505 9,13c5.09902,5.09903 8.93414,5.14429 11,6c2.92156,1.21014 7,1 11,1c4,0 9.01363,0.32993 13,0c6.06204,-0.50171 12.07843,-1.78986 15,-3c4.13171,-1.71143 6.17572,-1.60703 11,-4c5.22363,-2.59106 10.0713,-4.81631 18,-8c7.06732,-2.8378 11.80565,-5.44839 16,-7c3.867,-1.43048 8,-2 12,-2c10,0 13.19577,1.64886 17,4c4.25325,2.62866 8.22273,5.724 12,9c3.20512,2.77979 6.93788,7.04733 10,11c3.92142,5.06186 7.2068,8.81265 9,11c2.28589,2.78833 3.297,5.61383 6,8c1.67633,1.47983 3,3 5,5c2,2 4.50739,5.70892 10,9c6.53284,3.91434 15.00577,7.06705 27,6c15.4631,-1.37567 30.77655,-9.88391 47,-22c14.77377,-11.03342 25.29297,-21.71463 36,-33c9.25977,-9.75995 15.19409,-17.88855 18,-23c2.15204,-3.92029 3.69125,-8.07181 5,-13c1.62332,-6.11267 2.49829,-10.93796 3,-17c0.49487,-5.97955 0,-13 0,-20c0,-5 -1.14804,-6.22836 0,-9c0.5412,-1.30655 3,-4 7,-9c4,-5 6.3851,-9.37201 9,-13c2.48071,-3.4418 6.49347,-9.87857 7,-13c0.32037,-1.97418 0.48627,-4.82376 1,-7c0.4595,-1.9465 -1.41092,-6.69238 -6,-10c-5.44199,-3.92236 -13.89151,-7.3476 -23,-10c-7.91736,-2.30554 -17.07715,-4.40712 -27,-6c-9.103,-1.46127 -18.09744,-1.02164 -33,-3c-5.05469,-0.67102 -9.01086,-0.9575 -13,-2c-11.03128,-2.88283 -14.86829,-4.28859 -19,-6c-2.92157,-1.21014 -7,-3 -10,-5c-3,-2 -7,-5 -13,-11c-7,-7 -14.19577,-15.89171 -18,-23c-3.16531,-5.91446 -4,-9 -5,-13c-1,-4 -2.49295,-8.23401 -5,-13c-1.67856,-3.19099 -3.81265,-5.2068 -6,-7c-2.78833,-2.28587 -5.132,-3.75531 -9,-6c-3.11848,-1.80972 -6.94341,-3.14774 -12,-5c-2.96933,-1.08769 -7.04132,-1.84723 -11,-3c-3.03616,-0.88414 -7.02521,-1.88133 -12,-3c-4.02266,-0.90456 -7.9258,-1.49756 -13,-2c-4.97566,-0.49269 -9,0 -13,0c-4,0 -9,0 -13,0c-5,0 -8.87856,-0.49345 -12,-1c-1.97418,-0.32036 -3.69344,-1.4588 -5,-2c-1.84776,-0.76537 -3.85274,-1.1731 -5,-2c-1.814,-1.30745 -3,-3 -5,-4c-2,-1 -4.45049,-2.45049 -7,-5c-2.54951,-2.54951 -5,-5 -8,-8c-2,-2 -4.70267,-3.54136 -8,-5c-3.77064,-1.66801 -6.94366,-2.18835 -10,-3c-4.9282,-1.30875 -6.15224,-0.23463 -8,-1c-1.30656,-0.5412 -2,-1 -2,-1c-1,0 -3,0 -5,0c-1,0 -2,0 -4,0c-2,0 -5,0 -7,0c-2,0 -2.29289,-0.70711 -3,0c-0.70711,0.70711 0,1 -3,1c-1,0 -2,0 -4,0c-1,0 -2,0 -3,0c-1,0 -1.29289,-0.70711 -2,0c-0.70711,0.70711 0,1 -1,1c0,0 -1,0 -1,0c-2,1 -2.69344,1.4588 -4,2c-0.92388,0.38268 -2.07612,-0.38268 -3,0c-1.30656,0.5412 -4,1 -5,2c0,0 -1.07612,-0.38268 -2,0c-1.30656,0.5412 -1.82375,1.48626 -4,2c-1.9465,0.4595 -3,1 -4,1c-1,0 -2,0 -2,0c-1,0 -1,0 -2,0c0,0 -1,0 -2,0c-1,0 -2,0 -2,0c-1,0 -1,0 -1,0c0,0 -1,0 -1,0c-1,0 -1,0 -2,0c0,0 -1,0 -2,0c0,0 -1,0 -1,0c0,0 -1.07612,-0.38268 -2,0c-1.30656,0.5412 -2,1 -3,1c0,0 0,0 0,0c0,0 0,1 0,1c0,0 0,1 0,1c0,0 0,0 0,0l0,1" id="svg_1" stroke="#000" fill="none"/>
</svg>