<svg width="800" height="600" xmlns="http://www.w3.org/2000/svg">
 <g>
  <title>Layer 1</title>
  <path d="m374,325c0,0 0,0 0,0c0,-1 0,-2 -1,-3c-1,-1 -2.85272,-1.1731 -4,-2c-1.81396,-1.30745 -4.03876,-0.51945 -7,-1c-3.12146,-0.50655 -4,-1 -7,-1c-3,0 -6,0 -9,0c-1,0 -3,0 -5,0c-1,0 -3,0 -5,0c-2,0 -4.15222,0.23463 -6,1c-1.30658,0.5412 -3.18604,1.69255 -5,3c-2.29456,1.65381 -6,6 -9,10c-3,4 -5.54895,7.81401 -7,13c-1.63904,5.85777 -2,11 -2,18c0,8 -0.35495,14.1113 2,21c1.742,5.09564 3.34619,6.70547 5,9c1.30743,1.814 1.85272,4.1731 3,5c1.81396,1.30746 2.69342,3.4588 4,4c1.84778,0.76538 2.82373,1.48627 5,2c1.94647,0.4595 6.01703,0.58759 11,1c6.06201,0.50171 11.98877,0.93018 18,0c6.98792,-1.0813 12.32141,-2.10236 19,-5c5.34918,-2.32086 10.51703,-6.53165 15,-12c9.14349,-11.15329 9.87769,-15.06601 11,-17c1.80969,-3.11847 3.61066,-5.15927 5,-8c1.58411,-3.23892 3.87769,-5.06601 5,-7c1.80969,-3.11848 4.513,-4.59399 6,-7c1.66254,-2.68999 2.91754,-5.05664 5,-8c2.88788,-4.0817 6,-7 9,-9c3,-2 6.97736,-3.09544 11,-4c4.97479,-1.11867 10.0636,-1.87128 16,-1c10.32965,1.51607 14.07971,4.84796 18,7c5.11145,2.80591 9,6 13,9c4,3 8.22272,5.72398 12,9c3.20514,2.77979 6.20679,5.81265 8,8c2.28589,2.78833 5,6 8,12c3,6 5.47546,10.86194 7,17c1.46625,5.90338 1.50732,10.02432 2,15c0.50244,5.07422 1.75641,9.07217 1,13c-1.01837,5.28799 -2.61731,6.07611 -3,7c-0.5412,1.30655 -2,3 -3,4c-1,1 -2,2 -4,4c-1,1 -2.85272,2.1731 -4,3c-1.81396,1.30746 -2.93414,2.14429 -5,3c-2.92157,1.21014 -4.05353,1.5405 -6,2c-2.17627,0.51373 -4,1 -7,1c-3,0 -6,0 -8,0c-1,0 -3,0 -4,0c-1,0 -1,0 -2,0c-1,0 -2,0 -3,0c-1,0 -2.07611,0.38269 -3,0c-1.30658,-0.5412 -1.93414,-2.14429 -4,-3c-2.92157,-1.21014 -6.21167,-2.71411 -9,-5c-2.18732,-1.79318 -5,-3 -7,-6c-2,-3 -4.93787,-6.04733 -8,-10c-3.92139,-5.06186 -5.1731,-6.85272 -6,-8c-1.30743,-1.814 -1.69257,-3.186 -3,-5c-1.65381,-2.29453 -1.67499,-3.62003 -5,-9c-0.74347,-1.203 -2,-3 -3,-6c-1,-3 -2.08075,-7.98453 -3,-13c-1.09662,-5.98309 -1,-12 -1,-18c0,-6 0,-11 0,-17c0,-6 0,-13 0,-16c0,-2 0,-4 0,-6c0,-2 0,-4 0,-7c0,-2 0,-4 0,-6c0,-2 0,-4 0,-7c0,-4 0,-10 0,-15c0,-5 0,-10 0,-14c0,-3 -0.78986,-6.07843 -2,-9c-0.85571,-2.06586 -3.4588,-5.69344 -4,-7c-0.38269,-0.92387 0,-1 -1,-2c0,0 0,-1 -1,-1c0,0 0,0 0,-1c0,0 -0.02673,0.22975 -1,0c-2.17627,-0.51375 -4.1593,-2.61064 -7,-4c-3.23889,-1.58411 -5.05353,-2.5405 -7,-3c-2.17627,-0.51375 -2,-1 -3,-1c0,0 0,0 -1,0c0,0 -1,0 -3,0c-2,0 -5,0 -7,0c-2,0 -3.82373,1.48625 -6,2c-1.94647,0.4595 -4.151,-0.56537 -6,2c-0.58472,0.81125 -0.29291,1.29289 -1,2c-0.70709,0.70711 -1,1 -1,1c-1,1 -1.4588,0.69344 -2,2c-0.38269,0.92387 -0.4588,0.69344 -1,2c-0.38269,0.92387 -0.48627,2.82375 -1,5c-0.45953,1.9465 0,3 0,5c0,1 0,2 0,3c0,1 0.724,3.22273 4,7c0.92657,1.06837 2,2 3,3c1,1 1.29291,0.29289 2,1c0.70709,0.70711 0,1 1,1c0,0 0,0 1,0c0,0 0,0 0,0c1,0 2,0 4,0c1,0 2,0 2,0c0,0 1,0 2,0c1,0 2.05353,-0.5405 4,-1c2.17627,-0.51375 5.82373,-1.48625 8,-2c1.94647,-0.4595 3,0 4,-1c0,0 0,0 0,0c0,0 0.70544,-0.34619 3,-2c1.81396,-1.30745 4.21167,-2.71413 7,-5c3.28101,-2.68979 4.81268,-4.2068 7,-6c2.78833,-2.28587 6,-4 8,-6c2,-2 3.81268,-3.2068 6,-5c2.78833,-2.28587 5.21167,-2.71413 8,-5c2.18732,-1.7932 5,-3 7,-4c2,-1 5,-2 6,-2c1,0 2,0 4,0c1,0 2,0 5,0c5,0 7.07843,-0.21014 10,1c2.06586,0.85571 5.07971,1.84796 9,4c5.11145,2.80591 9.21259,4.67122 14,8c5.25714,3.65543 9.67944,7.57111 12,12c2.93524,5.60216 4.99402,10.83551 6,20c0.32733,2.98209 0,5 0,8c0,2 0,3 0,5c0,2 -0.41888,3.41885 -2,5c-1.58112,1.58115 -3.85272,3.1731 -5,4c-1.81396,1.30745 -4.03876,2.51945 -7,3c-3.12146,0.50655 -6.87994,3.15823 -11,3c-3.15997,-0.12135 -7.82288,-3.18536 -12,-7c-5.76727,-5.26675 -12.15533,-12.87389 -17,-19c-3.1015,-3.92184 -4.69257,-7.186 -6,-9c-0.8269,-1.14726 -2,-3 -2,-4c0,-1 -1,-2 -1,-3c0,-2 0,-5 0,-9c0,-2 0.70441,-5.0146 1,-8c0.50244,-5.0742 1.42261,-12.02385 2,-19c0.50171,-6.06203 2.10834,-13.25057 0,-20c-2.00018,-6.40307 -6.72961,-11.22885 -11,-16c-4.71582,-5.26885 -13.82373,-11.48626 -16,-12c-2.91974,-0.68926 -4.87854,-1.49346 -8,-2c-0.98706,-0.16018 -3,0 -4,0c-1,0 -3,0 -4,0c-1,0 -3.21167,-0.28588 -6,2c-2.18732,1.79319 -5.41589,3.76108 -7,7c-1.38934,2.84072 -3,5 -3,6c0,2 -1,2 -1,3c0,1 0.69342,2.4588 2,3c0.92389,0.38268 2.18604,1.69255 4,3c1.14728,0.8269 2.82373,2.48626 5,3c0.97327,0.22975 2,1 3,1c2,0 4.08582,0.57957 6,0c3.45087,-1.04483 8,-6 12,-10c4,-4 8.29364,-7.72651 12,-12c3.276,-3.77727 5.72961,-8.22885 10,-13c0.94318,-1.05377 2.85272,-3.1731 4,-4c1.81396,-1.30745 2.82373,-2.48626 5,-3c1.94647,-0.45951 3.90778,-1.49623 8,-2c3.97003,-0.48873 6,-1 10,-1c4,0 8,1 11,3c3,2 6,5 9,9c3,4 4.78986,7.07844 6,10c0.85571,2.06586 1,4 1,5c0,2 1,3 1,4c0,1 -0.4588,2.69344 -1,4c-0.38269,0.92388 -1.1731,2.85273 -2,4c-1.30743,1.814 -2,3 -3,4c-1,1 -3,2 -4,2c-2,0 -5,0 -7,0c-2,0 -4.06598,-0.87766 -6,-2c-3.11847,-1.80972 -4.18604,-2.69255 -6,-4c-1.14728,-0.8269 -2,-2 -3,-3c-1,-1 -3,-2 -4,-4c-1,-2 -2.87769,-4.066 -4,-6c-1.80969,-3.11848 -3.28857,-5.86829 -5,-10c-1.21014,-2.92156 -3.79395,-7.08744 -6,-12c-1.83203,-4.07966 -3.71411,-7.21167 -6,-10c-2.68976,-3.28101 -5.71899,-6.31021 -9,-9c-2.78833,-2.28588 -7.15222,-3.23463 -9,-4c-1.30658,-0.54119 -1.69342,-1.45881 -3,-2c-0.92389,-0.38268 -2,0 -4,0c0,0 -1,0 -2,0c-2,0 -4,0 -6,0c-3,0 -5.21167,0.71412 -8,3c-1.09369,0.8966 -3,3 -3,4c0,0 0,1 0,3c0,3 1.48627,3.82375 2,6c0.22974,0.97325 1,3 2,4c1,1 1,1 2,2c0,0 1,1 1,1c0,0 1,0 3,0c3,0 8.02435,0.49269 13,0c5.07422,-0.50245 10.13202,-2.75531 14,-5c3.11847,-1.80972 6,-5 9,-8c4,-4 5.15222,-4.23463 7,-5c1.30658,-0.54119 1.69342,-2.45881 3,-3c0.92389,-0.38268 2.69342,-1.45881 4,-2c0.92389,-0.38268 0.69342,-0.45881 2,-1c0.92389,-0.38268 2,0 2,0c1,0 1,0 2,0c0,0 -0.70709,-0.29289 0,-1c0.70709,-0.70711 1,0 1,0c1,0 3,0 4,0c0,0 1,0 1,0c1,0 1,-1 1,-1l0,0l0,0" id="svg_3" stroke="#000" fill="none"/>
  <polyline stroke-linecap="round" id="svg_5" points="231,228 231,228 " stroke="#000" fill="none"/>
 </g>

</svg>